<?xml version="1.0" standalone="no"?>
<!DOCTYPE svg PUBLIC "-//W3C//DTD SVG 20010904//EN"
 "http://www.w3.org/TR/2001/REC-SVG-20010904/DTD/svg10.dtd">
<svg version="1.0" xmlns="http://www.w3.org/2000/svg"
 width="500.000000pt" height="500.000000pt" viewBox="0 0 500.000000 500.000000"
 preserveAspectRatio="xMidYMid meet">

<g transform="translate(0.000000,500.000000) scale(0.100000,-0.100000)"
fill="#000000" stroke="none">
<path d="M2358 3568 l-3 -152 -70 -12 c-125 -22 -210 -56 -319 -128 -191 -124
-322 -308 -377 -528 -37 -149 -24 -368 30 -506 l21 -52 -23 -13 c-12 -8 -69
-40 -127 -72 -58 -31 -109 -61 -114 -65 -9 -9 71 -140 86 -140 5 0 65 32 135
71 l125 72 26 -34 c147 -195 391 -323 639 -336 267 -14 494 75 684 268 l86 87
153 -89 c84 -49 154 -88 155 -87 1 2 22 33 47 70 l47 67 -82 48 c-124 73 -138
81 -189 108 -27 14 -48 28 -48 31 0 4 13 45 30 93 171 498 -155 1045 -675
1135 l-70 12 -3 152 -3 152 -79 0 -79 0 -3 -152z m260 -342 c73 -20 186 -75
251 -121 66 -48 164 -169 202 -250 45 -95 69 -205 69 -314 -1 -309 -181 -561
-474 -662 -334 -115 -706 40 -858 359 -48 101 -68 190 -68 307 0 115 20 207
64 298 100 208 280 347 517 397 58 12 230 4 297 -14z"/>
<path d="M2348 2887 c-59 -17 -148 -75 -182 -119 -14 -19 -37 -60 -52 -91 -23
-52 -26 -68 -22 -145 2 -65 9 -99 26 -134 37 -74 96 -134 170 -170 59 -30 76
-33 152 -33 76 0 93 3 152 33 82 40 144 107 177 190 20 52 23 74 19 144 -3 70
-9 93 -37 146 -60 111 -164 179 -287 187 -41 3 -88 0 -116 -8z m194 -193 c53
-37 82 -93 81 -155 -1 -58 -24 -100 -76 -143 -35 -28 -46 -31 -106 -31 -59 0
-72 4 -104 28 -68 52 -95 120 -76 192 34 128 176 183 281 109z"/>
</g>
</svg>
