<?xml version="1.0" standalone="no"?>
<!DOCTYPE svg PUBLIC "-//W3C//DTD SVG 20010904//EN"
 "http://www.w3.org/TR/2001/REC-SVG-20010904/DTD/svg10.dtd">
<svg version="1.0" xmlns="http://www.w3.org/2000/svg"
 width="312.000000pt" height="313.000000pt" viewBox="0 0 312.000000 313.000000"
 preserveAspectRatio="xMidYMid meet">

<g transform="translate(0.000000,313.000000) scale(0.100000,-0.100000)"
fill="#000000" stroke="none">
<path d="M0 1565 l0 -1565 1560 0 1560 0 0 1565 0 1565 -1560 0 -1560 0 0
-1565z m1650 861 c0 -145 0 -146 58 -146 15 -1 70 -15 123 -33 287 -98 488
-348 529 -660 14 -105 2 -210 -36 -325 -13 -40 -24 -77 -24 -82 0 -5 62 -46
138 -90 75 -45 139 -83 141 -85 3 -3 -54 -88 -79 -118 -4 -4 -69 29 -145 74
l-139 81 -19 -24 c-112 -142 -284 -249 -457 -284 -63 -12 -114 -15 -204 -11
-145 6 -241 33 -358 102 -73 43 -196 152 -231 203 l-15 24 -109 -60 c-59 -34
-113 -62 -120 -64 -15 -4 -97 112 -86 122 4 5 59 36 121 70 61 34 112 65 112
70 0 5 -9 33 -19 62 -65 178 -52 404 33 583 120 252 306 388 614 451 21 4 22
7 22 139 l0 135 75 0 75 0 0 -134z"/>
<path d="M1455 2126 c-129 -29 -262 -103 -341 -188 -67 -70 -138 -205 -154
-290 -15 -78 -12 -246 5 -312 94 -361 505 -560 856 -416 169 70 295 207 356
385 38 109 40 272 5 383 -46 147 -158 289 -285 362 -126 73 -315 105 -442 76z
m177 -307 c226 -47 333 -305 205 -496 -60 -90 -189 -152 -291 -139 -105 14
-211 90 -258 185 -15 31 -23 70 -26 123 -4 67 -1 84 22 135 45 97 131 168 233
192 52 12 55 12 115 0z"/>
<path d="M1515 1656 c-43 -18 -93 -79 -101 -122 -13 -70 26 -148 90 -178 75
-35 158 -13 210 57 31 42 30 140 -3 186 -43 60 -131 86 -196 57z"/>
</g>
</svg>
